# Blender 3.4.1
# www.blender.org
mtllib FacesOfCube.mtl
o Cube.002
v -0.495071 0.500000 -0.500000
v -0.499929 0.500000 -0.500000
v -0.495071 0.500000 0.500000
v -0.499929 0.500000 0.500000
v -0.500000 0.500000 -0.499928
v -0.500000 0.500000 -0.495071
v 0.500000 0.500000 -0.499929
v 0.500000 0.500000 -0.495071
v -0.500000 0.500000 0.495072
v -0.500000 0.500000 0.499929
v 0.500000 0.500000 0.495071
v 0.500000 0.500000 0.499929
v 0.499929 0.500000 -0.500000
v 0.495071 0.500000 -0.500000
v 0.499929 0.500000 0.500000
v 0.495071 0.500000 0.500000
v -0.495071 -0.500000 0.500000
v -0.499929 -0.500000 0.500000
v -0.495072 -0.500000 -0.500000
v -0.499929 -0.500000 -0.500000
v -0.500000 -0.500000 0.499929
v -0.500000 -0.500000 0.495071
v 0.500000 -0.500000 0.499929
v 0.500000 -0.500000 0.495071
v -0.500000 -0.500000 -0.495071
v -0.500000 -0.500000 -0.499929
v 0.500000 -0.500000 -0.495071
v 0.500000 -0.500000 -0.499929
v 0.499929 -0.500000 0.500000
v 0.495072 -0.500000 0.500000
v 0.499929 -0.500000 -0.500000
v 0.495071 -0.500000 -0.500000
v 0.500000 -0.500000 -0.495071
v 0.500000 -0.500000 -0.499929
v 0.500000 0.500000 -0.495072
v 0.500000 0.500000 -0.499929
v 0.500000 -0.499928 -0.500000
v 0.500000 -0.495071 -0.500000
v 0.500000 -0.499928 0.500000
v 0.500000 -0.495071 0.500000
v 0.500000 0.495072 -0.500000
v 0.500000 0.499929 -0.500000
v 0.500000 0.495072 0.500000
v 0.500000 0.499929 0.500000
v 0.500000 -0.500000 0.499929
v 0.500000 -0.500000 0.495072
v 0.500000 0.500000 0.499929
v 0.500000 0.500000 0.495071
v -0.500000 0.500000 -0.495071
v -0.500000 0.500000 -0.499929
v -0.500000 -0.500000 -0.495071
v -0.500000 -0.500000 -0.499929
v -0.500000 0.499929 -0.500000
v -0.500000 0.495071 -0.500000
v -0.500000 0.499929 0.500000
v -0.500000 0.495072 0.500000
v -0.500000 -0.495071 -0.500000
v -0.500000 -0.499929 -0.500000
v -0.500000 -0.495071 0.500000
v -0.500000 -0.499929 0.500000
v -0.500000 0.500000 0.499929
v -0.500000 0.500000 0.495071
v -0.500000 -0.500000 0.499929
v -0.500000 -0.500000 0.495071
v -0.495071 -0.500000 -0.500000
v -0.499929 -0.500000 -0.500000
v -0.495072 0.500000 -0.500000
v -0.499929 0.500000 -0.500000
v -0.500000 -0.499929 -0.500000
v -0.500000 -0.495071 -0.500000
v 0.500000 -0.499929 -0.500000
v 0.500000 -0.495071 -0.500000
v -0.500000 0.495072 -0.500000
v -0.500000 0.499929 -0.500000
v 0.500000 0.495072 -0.500000
v 0.500000 0.499929 -0.500000
v 0.499929 -0.500000 -0.500000
v 0.495071 -0.500000 -0.500000
v 0.499929 0.500000 -0.500000
v 0.495071 0.500000 -0.500000
v -0.495071 0.500000 0.500000
v -0.499929 0.500000 0.500000
v -0.495071 -0.500000 0.500000
v -0.499929 -0.500000 0.500000
v -0.500000 0.499929 0.500000
v -0.500000 0.495071 0.500000
v 0.500000 0.499929 0.500000
v 0.500000 0.495072 0.500000
v -0.500000 -0.495071 0.500000
v -0.500000 -0.499929 0.500000
v 0.500000 -0.495071 0.500000
v 0.500000 -0.499928 0.500000
v 0.499929 0.500000 0.500000
v 0.495072 0.500000 0.500000
v 0.499929 -0.500000 0.500000
v 0.495071 -0.500000 0.500000
vn -0.0000 -1.0000 -0.0000
vn -0.0000 1.0000 -0.0000
vn -1.0000 -0.0000 -0.0000
vn 1.0000 -0.0000 -0.0000
vn -0.0000 -0.0000 1.0000
vn -0.0000 -0.0000 -1.0000
vt 0.625000 0.500000
vt 0.375000 0.500000
vt 0.625000 0.750000
vt 0.375000 0.750000
vt 0.625000 0.500000
vt 0.375000 0.500000
vt 0.625000 0.750000
vt 0.375000 0.750000
vt 0.625000 0.500000
vt 0.375000 0.500000
vt 0.625000 0.750000
vt 0.375000 0.750000
vt 0.625000 0.500000
vt 0.375000 0.500000
vt 0.625000 0.750000
vt 0.375000 0.750000
vt 0.625000 0.500000
vt 0.375000 0.500000
vt 0.625000 0.750000
vt 0.375000 0.750000
vt 0.625000 0.500000
vt 0.375000 0.500000
vt 0.625000 0.750000
vt 0.375000 0.750000
vt 0.625000 0.500000
vt 0.375000 0.500000
vt 0.625000 0.750000
vt 0.375000 0.750000
vt 0.625000 0.500000
vt 0.375000 0.500000
vt 0.625000 0.750000
vt 0.375000 0.750000
vt 0.625000 0.500000
vt 0.375000 0.500000
vt 0.625000 0.750000
vt 0.375000 0.750000
vt 0.625000 0.500000
vt 0.375000 0.500000
vt 0.625000 0.750000
vt 0.375000 0.750000
vt 0.625000 0.500000
vt 0.375000 0.500000
vt 0.625000 0.750000
vt 0.375000 0.750000
vt 0.625000 0.500000
vt 0.375000 0.500000
vt 0.625000 0.750000
vt 0.375000 0.750000
vt 0.625000 0.500000
vt 0.375000 0.500000
vt 0.625000 0.750000
vt 0.375000 0.750000
vt 0.625000 0.500000
vt 0.375000 0.500000
vt 0.625000 0.750000
vt 0.375000 0.750000
vt 0.625000 0.500000
vt 0.375000 0.500000
vt 0.625000 0.750000
vt 0.375000 0.750000
vt 0.625000 0.500000
vt 0.375000 0.500000
vt 0.625000 0.750000
vt 0.375000 0.750000
vt 0.625000 0.500000
vt 0.375000 0.500000
vt 0.625000 0.750000
vt 0.375000 0.750000
vt 0.625000 0.500000
vt 0.375000 0.500000
vt 0.625000 0.750000
vt 0.375000 0.750000
vt 0.625000 0.500000
vt 0.375000 0.500000
vt 0.625000 0.750000
vt 0.375000 0.750000
vt 0.625000 0.500000
vt 0.375000 0.500000
vt 0.625000 0.750000
vt 0.375000 0.750000
vt 0.625000 0.500000
vt 0.375000 0.500000
vt 0.625000 0.750000
vt 0.375000 0.750000
vt 0.625000 0.500000
vt 0.375000 0.500000
vt 0.625000 0.750000
vt 0.375000 0.750000
vt 0.625000 0.500000
vt 0.375000 0.500000
vt 0.625000 0.750000
vt 0.375000 0.750000
vt 0.625000 0.500000
vt 0.375000 0.500000
vt 0.625000 0.750000
vt 0.375000 0.750000
s 0
usemtl Material.002
f 2/2/1 1/1/1 3/3/1 4/4/1
usemtl Material.001
f 6/6/1 5/5/1 7/7/1 8/8/1
usemtl Material.003
f 10/10/1 9/9/1 11/11/1 12/12/1
usemtl Material.004
f 14/14/1 13/13/1 15/15/1 16/16/1
usemtl Material.017
f 18/18/2 17/17/2 19/19/2 20/20/2
usemtl Material.018
f 22/22/2 21/21/2 23/23/2 24/24/2
usemtl Material.019
f 26/26/2 25/25/2 27/27/2 28/28/2
usemtl Material.020
f 30/30/2 29/29/2 31/31/2 32/32/2
usemtl Material.021
f 34/34/3 33/33/3 35/35/3 36/36/3
usemtl Material.022
f 38/38/3 37/37/3 39/39/3 40/40/3
usemtl Material.023
f 42/42/3 41/41/3 43/43/3 44/44/3
usemtl Material.024
f 46/46/3 45/45/3 47/47/3 48/48/3
usemtl Material.025
f 50/50/4 49/49/4 51/51/4 52/52/4
usemtl Material.026
f 54/54/4 53/53/4 55/55/4 56/56/4
usemtl Material.027
f 58/58/4 57/57/4 59/59/4 60/60/4
usemtl Material.028
f 62/62/4 61/61/4 63/63/4 64/64/4
usemtl Material.029
f 66/66/5 65/65/5 67/67/5 68/68/5
usemtl Material.030
f 70/70/5 69/69/5 71/71/5 72/72/5
usemtl Material.031
f 74/74/5 73/73/5 75/75/5 76/76/5
usemtl Material.032
f 78/78/5 77/77/5 79/79/5 80/80/5
usemtl Material.033
f 82/82/6 81/81/6 83/83/6 84/84/6
usemtl Material.034
f 86/86/6 85/85/6 87/87/6 88/88/6
usemtl Material.035
f 90/90/6 89/89/6 91/91/6 92/92/6
usemtl Material.036
f 94/94/6 93/93/6 95/95/6 96/96/6
