# Blender 3.4.1
# www.blender.org
mtllib untitled.mtl
o Cube.001
v 1.000000 -1.000000 1.000000
v -1.000000 -1.000000 1.000000
v 1.000000 1.000000 1.000000
v -1.000000 1.000000 1.000000
v 1.000000 -1.000000 0.999981
v -1.000000 -1.000000 0.999981
v 1.000000 1.000000 0.999981
v -1.000000 1.000000 0.999981
v 0.000000 0.000000 -0.000019
vn 1.0000 -0.0000 -0.0000
vn -0.0000 -0.0000 1.0000
vn -0.0000 1.0000 -0.0000
vn -1.0000 -0.0000 -0.0000
vn -0.0000 -1.0000 -0.0000
vn -0.0000 -0.7071 -0.7071
vn -0.0000 0.7071 -0.7071
vn 0.7071 -0.0000 -0.7071
vn -0.7071 -0.0000 -0.7071
vt 0.625000 0.750000
vt 0.375000 0.750000
vt 0.875000 0.750000
vt 0.625000 1.000000
vt 0.625000 0.000000
vt 0.375000 1.000000
vt 0.375000 0.000000
vt 0.125000 0.750000
vt 0.625000 0.749998
vt 0.615741 0.065680
vt 0.375000 0.065680
vt 0.375000 0.749998
vt 0.384259 0.065680
vt 0.375000 0.684321
vt 0.875000 0.749998
vt 0.625000 0.000002
vt 0.615741 0.684320
vt 0.375000 0.065680
vt 0.375000 0.000002
vt 0.125000 0.749998
vt 0.384259 0.684321
vt 0.375000 0.684321
vt 0.500000 0.125001
vt 0.500000 0.624999
vt 0.375000 0.125001
vt 0.375000 0.624999
s 0
usemtl Material.001
f 7/15/1 3/3/1 1/1/1 5/9/1
f 2/2/2 1/1/2 3/4/2 4/6/2
f 4/7/3 3/5/3 7/16/3 8/19/3
f 2/2/4 4/8/4 8/20/4 6/12/4
f 1/1/5 2/2/5 6/12/5 5/9/5
f 9/23/6 5/10/6 6/13/6
f 7/17/7 9/24/7 8/21/7
f 9/25/8 7/18/8 5/11/8
f 9/26/9 6/14/9 8/22/9
